<svg width="237" height="265" viewBox="0 0 237 265" fill="none" xmlns="http://www.w3.org/2000/svg">
<path fill-rule="evenodd" clip-rule="evenodd" d="M151.293 174.654C152.263 171.033 154.632 167.945 157.879 166.071C161.126 164.196 164.984 163.688 168.605 164.659L223.221 179.293C226.843 180.263 229.93 182.632 231.805 185.879C233.679 189.126 234.187 192.984 233.217 196.605L218.583 251.221C217.612 254.843 215.243 257.93 211.996 259.805C208.75 261.679 204.891 262.187 201.27 261.217L146.654 246.583C143.033 245.612 139.945 243.243 138.071 239.996C136.196 236.75 135.688 232.891 136.659 229.27L151.293 174.654ZM180.322 196.847C181.024 198.064 181.214 199.51 180.85 200.867C180.487 202.224 179.599 203.381 178.383 204.084L169.987 208.932L174.834 217.328C175.212 217.932 175.464 218.605 175.575 219.308C175.687 220.011 175.656 220.73 175.484 221.42C175.312 222.111 175.002 222.76 174.574 223.329C174.145 223.897 173.607 224.374 172.99 224.73C172.374 225.086 171.692 225.314 170.986 225.4C170.279 225.487 169.562 225.431 168.878 225.234C168.194 225.038 167.556 224.706 167.003 224.258C166.45 223.809 165.993 223.254 165.659 222.626L158.162 209.641C157.46 208.424 157.271 206.979 157.634 205.622C157.998 204.265 158.885 203.108 160.101 202.405L173.086 194.908C174.303 194.207 175.748 194.017 177.105 194.38C178.462 194.744 179.619 195.631 180.322 196.847ZM195.041 208.547C194.397 207.334 194.248 205.919 194.627 204.598C195.006 203.278 195.882 202.156 197.072 201.47C198.261 200.783 199.671 200.585 201.004 200.917C202.337 201.249 203.488 202.085 204.217 203.25L211.713 216.234C212.415 217.451 212.605 218.897 212.241 220.254C211.878 221.611 210.99 222.768 209.774 223.471L196.79 230.967C196.186 231.345 195.513 231.597 194.81 231.708C194.107 231.82 193.388 231.789 192.698 231.617C192.007 231.445 191.358 231.135 190.789 230.707C190.221 230.278 189.744 229.74 189.388 229.123C189.032 228.507 188.804 227.825 188.718 227.118C188.631 226.412 188.687 225.695 188.884 225.011C189.08 224.327 189.412 223.689 189.86 223.136C190.309 222.583 190.864 222.126 191.492 221.792L199.889 216.944L195.041 208.547Z" fill="url(#paint0_linear_23_804)"/>
<path d="M91.4793 163.839L69.9564 114.105C77.0633 106.537 79.3033 95.2191 74.8095 84.8349C70.0791 73.9043 58.9389 67.654 47.8175 68.1949L57.9877 91.6959L41.5581 98.7131L30.9958 75.0558C22.5571 82.5453 19.8504 95.0335 24.5807 105.964C29.0745 116.348 38.883 122.52 49.3011 122.603L70.824 172.338C71.7701 174.524 74.1226 175.462 76.3132 174.526L88.9093 169.146C91.492 168.367 92.581 165.635 91.4793 163.839Z" fill="url(#paint1_linear_23_804)"/>
<path d="M176.253 3.92848C168.713 2.88659 161.052 4.75248 154.954 9.11568C148.857 13.4789 144.822 19.982 143.739 27.1944C141.485 42.1901 156.879 48.5882 155.344 66.4711L177.896 69.5875C181.689 52.0166 198.343 50.0471 200.596 35.0514C201.68 27.839 199.724 20.5081 195.159 14.6714C190.593 8.83472 183.793 4.97038 176.253 3.92848ZM161.466 102.345C169.159 103.408 172.15 99.7487 173.27 97.3695L151.608 94.376C151.981 96.9656 153.774 101.282 161.466 102.345ZM151.855 90.4367L174.192 93.5234L177.206 73.4617L154.87 70.375L151.855 90.4367Z" fill="url(#paint2_linear_23_804)"/>
<defs>
<linearGradient id="paint0_linear_23_804" x1="195.913" y1="171.976" x2="173.962" y2="253.9" gradientUnits="userSpaceOnUse">
<stop stop-color="#A5E1F8"/>
<stop offset="1" stop-color="#618492"/>
</linearGradient>
<linearGradient id="paint1_linear_23_804" x1="77.264" y1="77.2202" x2="43.194" y2="162.679" gradientUnits="userSpaceOnUse">
<stop stop-color="#FFE35F"/>
<stop offset="1" stop-color="#998839"/>
</linearGradient>
<linearGradient id="paint2_linear_23_804" x1="176.253" y1="3.92848" x2="162.631" y2="102.506" gradientUnits="userSpaceOnUse">
<stop stop-color="#C86464"/>
<stop offset="1" stop-color="#623131"/>
</linearGradient>
</defs>
</svg>
